PathFileType	4	(X/Y/Z)	 C:\Users\z3550257\Dropbox\University\GitHubClones\TheiaOpensim\ExampleData\P01_procesed_with_single_calib\C3D_data\static_0_Theia.trc
DataRate	CameraRate	NumFrames	NumMarkers	Units	OrigDataRate	OrigDataStartFrame	OrigNumFrames
100	100	10	40	m	100	1446	1927
Frame#	Time	PELVIS1			LHIP			LKNEE			LANK			LMTP			RHIP			RKNEE			RANK			RMTP			CVJ			TORSO			LSHO			LELB			LWRIST			RSHO			RELB			RWRIST			LCALC			RCALC			LTOE			RTOE			LHAND			RHAND			HEAD_CENTRE			TORSO_LOW			LTHI			RTHI			LSHA			RSHA			L_LCALC			R_LCALC			LUA			RUA			LFRM			RFRM			HEAD_L			HEAD_R			TORSO_L			TORSO_R			PELVIS2			
		X1	Y1	Z1	X2	Y2	Z2	X3	Y3	Z3	X4	Y4	Z4	X5	Y5	Z5	X6	Y6	Z6	X7	Y7	Z7	X8	Y8	Z8	X9	Y9	Z9	X10	Y10	Z10	X11	Y11	Z11	X12	Y12	Z12	X13	Y13	Z13	X14	Y14	Z14	X15	Y15	Z15	X16	Y16	Z16	X17	Y17	Z17	X18	Y18	Z18	X19	Y19	Z19	X20	Y20	Z20	X21	Y21	Z21	X22	Y22	Z22	X23	Y23	Z23	X24	Y24	Z24	X25	Y25	Z25	X26	Y26	Z26	X27	Y27	Z27	X28	Y28	Z28	X29	Y29	Z29	X30	Y30	Z30	X31	Y31	Z31	X32	Y32	Z32	X33	Y33	Z33	X34	Y34	Z34	X35	Y35	Z35	X36	Y36	Z36	X37	Y37	Z37	X38	Y38	Z38	X39	Y39	Z39	X40	Y40	Z40	
1446	14.4600	0.157805	0.978372	-0.248835	0.168681	0.886016	-0.339501	0.164918	0.492465	-0.387181	0.128967	0.098384	-0.437325	0.273078	0.037862	-0.468050	0.163921	0.886549	-0.157184	0.159959	0.493706	-0.101945	0.134032	0.097035	-0.048336	0.281105	0.036363	-0.028408	0.140258	1.592590	-0.265332	0.170534	1.496409	-0.262223	0.171059	1.395507	-0.431624	0.288767	1.129340	-0.541645	0.466836	0.951072	-0.588504	0.160164	1.409265	-0.088629	0.241391	1.139515	0.047385	0.415323	0.961811	0.114916	0.073793	0.028778	-0.426270	0.078740	0.027257	-0.058420	0.321563	0.038021	-0.478192	0.330104	0.035888	-0.021215	0.515628	0.915774	-0.594974	0.453490	0.915681	0.125542	0.174205	1.628364	-0.265814	0.185059	1.243116	-0.255592	0.154479	0.696491	-0.436980	0.148439	0.698914	-0.056300	0.136339	0.303914	-0.475814	0.135363	0.305234	-0.011956	0.112968	0.047673	-0.474366	0.119883	0.045727	-0.011362	0.259828	1.285447	-0.466208	0.234615	1.294737	-0.038214	0.390104	1.054552	-0.528962	0.341413	1.062248	0.044121	0.095597	1.707752	-0.342736	0.091004	1.709056	-0.192813	0.173967	1.492682	-0.412136	0.167102	1.500136	-0.112309	0.166301	0.886282	-0.248342	
1447	14.4700	0.156720	0.978657	-0.248624	0.167988	0.886344	-0.339288	0.164774	0.492802	-0.387087	0.128905	0.098753	-0.437538	0.273029	0.038094	-0.467933	0.162921	0.886833	-0.156979	0.159517	0.493935	-0.102092	0.133961	0.097251	-0.048403	0.281050	0.036681	-0.028271	0.138438	1.592844	-0.265804	0.168656	1.497044	-0.262612	0.169562	1.397574	-0.432401	0.297999	1.138710	-0.547668	0.485511	0.970935	-0.596643	0.157863	1.411330	-0.089022	0.249240	1.148242	0.053416	0.432095	0.980511	0.122966	0.073744	0.029199	-0.426108	0.078725	0.027433	-0.058513	0.321517	0.038088	-0.478074	0.330038	0.035808	-0.021033	0.535972	0.938271	-0.603387	0.472989	0.936968	0.134395	0.172633	1.628384	-0.266103	0.183599	1.243779	-0.255862	0.154452	0.696834	-0.436893	0.147805	0.699087	-0.056243	0.136574	0.304291	-0.475928	0.135184	0.305456	-0.012047	0.112917	0.047841	-0.474304	0.119802	0.045955	-0.011417	0.262786	1.292020	-0.469278	0.236581	1.300845	-0.036072	0.402757	1.068633	-0.535439	0.353134	1.076235	0.051031	0.094789	1.708505	-0.343045	0.089788	1.709468	-0.193132	0.172151	1.493255	-0.412523	0.165160	1.500833	-0.112701	0.165455	0.886589	-0.248133	
1448	14.4800	0.155682	0.978940	-0.248500	0.167310	0.886640	-0.339133	0.164555	0.493103	-0.387009	0.128847	0.099076	-0.437747	0.272985	0.038295	-0.467834	0.161988	0.887147	-0.156832	0.159056	0.494199	-0.102279	0.133901	0.097501	-0.048498	0.280996	0.037000	-0.028199	0.136639	1.593141	-0.266209	0.166805	1.497689	-0.262981	0.167955	1.399763	-0.433032	0.307112	1.149118	-0.553839	0.503456	0.992385	-0.604980	0.155536	1.413394	-0.089491	0.257076	1.157899	0.059678	0.448594	1.000924	0.130921	0.073695	0.029569	-0.425997	0.078709	0.027657	-0.058668	0.321477	0.038168	-0.477968	0.329971	0.035777	-0.020918	0.555491	0.962510	-0.612034	0.492010	0.960076	0.143210	0.171080	1.628445	-0.266347	0.182142	1.244450	-0.256132	0.154337	0.697137	-0.436832	0.147148	0.699298	-0.056246	0.136725	0.304626	-0.476039	0.134960	0.305714	-0.012181	0.112873	0.047989	-0.474275	0.119725	0.046199	-0.011526	0.265553	1.299090	-0.472237	0.238468	1.307329	-0.033976	0.414987	1.083862	-0.542063	0.364628	1.091432	0.057969	0.093977	1.709274	-0.343300	0.088620	1.709940	-0.193396	0.170385	1.493852	-0.412888	0.163225	1.501526	-0.113073	0.164649	0.886894	-0.247982	
1449	14.4900	0.154678	0.979228	-0.248496	0.166620	0.886919	-0.339079	0.164262	0.493382	-0.386969	0.128824	0.099357	-0.437915	0.272963	0.038470	-0.467777	0.161115	0.887488	-0.156783	0.158608	0.494505	-0.102459	0.133869	0.097791	-0.048610	0.280953	0.037293	-0.028223	0.134884	1.593483	-0.266548	0.165001	1.498328	-0.263321	0.166279	1.402050	-0.433513	0.316002	1.160529	-0.560111	0.520524	1.015357	-0.613392	0.153277	1.415446	-0.090010	0.264896	1.168467	0.066109	0.464775	1.023086	0.138699	0.073663	0.029893	-0.425959	0.078695	0.027948	-0.058883	0.321458	0.038266	-0.477897	0.329916	0.035830	-0.020904	0.574054	0.988415	-0.620756	0.510471	0.984994	0.151867	0.169562	1.628555	-0.266554	0.180715	1.245116	-0.256378	0.154081	0.697409	-0.436823	0.146489	0.699565	-0.056306	0.136770	0.304918	-0.476133	0.134722	0.306010	-0.012327	0.112854	0.048157	-0.474285	0.119665	0.046460	-0.011690	0.268107	1.306615	-0.475057	0.240330	1.314189	-0.031901	0.426757	1.100300	-0.548818	0.375828	1.107771	0.064832	0.093158	1.710038	-0.343519	0.087503	1.710474	-0.193625	0.168699	1.494448	-0.413225	0.161304	1.502208	-0.113418	0.163867	0.887204	-0.247931	
1450	14.5000	0.153684	0.979524	-0.248616	0.165895	0.887198	-0.339147	0.163905	0.493651	-0.386972	0.128855	0.099604	-0.438012	0.272979	0.038622	-0.467757	0.160286	0.887846	-0.156854	0.158196	0.494853	-0.102589	0.133877	0.098115	-0.048723	0.280931	0.037543	-0.028348	0.133195	1.593868	-0.266826	0.163266	1.498951	-0.263617	0.164590	1.404406	-0.433866	0.324606	1.172870	-0.566397	0.536636	1.039759	-0.621727	0.151153	1.417491	-0.090525	0.272665	1.179898	0.072629	0.480522	1.046946	0.146260	0.073661	0.030178	-0.426005	0.078687	0.028304	-0.059137	0.321477	0.038382	-0.477857	0.329886	0.035978	-0.021004	0.591560	1.015863	-0.629389	0.528257	1.011666	0.160260	0.168097	1.628719	-0.266734	0.179339	1.245765	-0.256575	0.153656	0.697661	-0.436877	0.145847	0.699892	-0.056409	0.136708	0.305174	-0.476198	0.134499	0.306337	-0.012452	0.112878	0.048375	-0.474335	0.119636	0.046730	-0.011892	0.270453	1.314546	-0.477728	0.242197	1.321425	-0.029807	0.438054	1.117953	-0.555634	0.386662	1.125158	0.071552	0.092343	1.710779	-0.343729	0.086442	1.711077	-0.193844	0.167113	1.495027	-0.413515	0.159419	1.502875	-0.113719	0.163091	0.887522	-0.248001	
1451	14.5100	0.152675	0.979824	-0.248836	0.165125	0.887486	-0.339322	0.163499	0.493921	-0.387004	0.128955	0.099828	-0.438028	0.273043	0.038754	-0.467752	0.159490	0.888205	-0.157031	0.157830	0.495228	-0.102645	0.133930	0.098460	-0.048815	0.280937	0.037736	-0.028556	0.131587	1.594296	-0.267047	0.161619	1.499553	-0.263843	0.162954	1.406800	-0.434117	0.332899	1.186045	-0.572581	0.551765	1.065468	-0.629825	0.149187	1.419532	-0.090972	0.280306	1.192120	0.079159	0.495636	1.072349	0.153591	0.073694	0.030438	-0.426126	0.078691	0.028712	-0.059394	0.321545	0.038515	-0.477823	0.329888	0.036209	-0.021204	0.607944	1.044693	-0.637784	0.545203	1.039973	0.168303	0.166698	1.628935	-0.266892	0.178029	1.246392	-0.256707	0.153068	0.697902	-0.436982	0.145226	0.700267	-0.056534	0.136553	0.305404	-0.476222	0.134305	0.306680	-0.012531	0.112955	0.048651	-0.474413	0.119646	0.047002	-0.012102	0.272628	1.322836	-0.480243	0.244053	1.329023	-0.027653	0.448869	1.136758	-0.562390	0.397038	1.143471	0.078100	0.091547	1.711483	-0.343956	0.085441	1.711755	-0.194081	0.165636	1.495589	-0.413736	0.157602	1.503517	-0.113950	0.162308	0.887845	-0.248177	
1452	14.5200	0.151649	0.980120	-0.249104	0.164324	0.887783	-0.339559	0.163064	0.494192	-0.387036	0.129119	0.100037	-0.437975	0.273157	0.038863	-0.467732	0.158722	0.888552	-0.157268	0.157517	0.495609	-0.102631	0.134029	0.098808	-0.048866	0.280975	0.037872	-0.028808	0.130066	1.594765	-0.267208	0.160085	1.500134	-0.263977	0.161435	1.409202	-0.434290	0.340887	1.199953	-0.578540	0.565907	1.092331	-0.637536	0.147354	1.421563	-0.091287	0.287717	1.205049	0.085623	0.509873	1.099048	0.160682	0.073765	0.030686	-0.426288	0.078710	0.029147	-0.059606	0.321666	0.038657	-0.477765	0.329929	0.036490	-0.021465	0.623157	1.074725	-0.645826	0.561111	1.069724	0.175932	0.165373	1.629204	-0.267025	0.176795	1.246994	-0.256769	0.152362	0.698136	-0.437106	0.144626	0.700661	-0.056661	0.136340	0.305620	-0.476201	0.134141	0.307024	-0.012558	0.113087	0.048969	-0.474498	0.119699	0.047271	-0.012280	0.274675	1.331436	-0.482588	0.245842	1.336950	-0.025420	0.459187	1.156578	-0.568939	0.406844	1.162574	0.084464	0.090785	1.712143	-0.344212	0.084502	1.712514	-0.194346	0.164270	1.496143	-0.413864	0.155900	1.504125	-0.114089	0.161523	0.888167	-0.248414	
1453	14.5300	0.150627	0.980400	-0.249355	0.163535	0.888079	-0.339793	0.162626	0.494460	-0.387037	0.129328	0.100237	-0.437882	0.273311	0.038952	-0.467679	0.157991	0.888876	-0.157500	0.157260	0.495971	-0.102580	0.134168	0.099140	-0.048867	0.281042	0.037954	-0.029051	0.128635	1.595268	-0.267302	0.158687	1.500696	-0.264012	0.160083	1.411591	-0.434394	0.348571	1.214501	-0.584173	0.579043	1.120177	-0.644746	0.145605	1.423577	-0.091434	0.294792	1.218614	0.091944	0.522997	1.126745	0.167507	0.073870	0.030928	-0.426443	0.078744	0.029580	-0.059730	0.321828	0.038804	-0.477668	0.330004	0.036776	-0.021735	0.637154	1.105774	-0.653439	0.575785	1.100669	0.183101	0.164125	1.629516	-0.267120	0.175651	1.247573	-0.256769	0.151614	0.698362	-0.437207	0.144043	0.701038	-0.056773	0.136108	0.305830	-0.476140	0.133999	0.307353	-0.012546	0.113261	0.049294	-0.474565	0.119792	0.047538	-0.012390	0.276628	1.340301	-0.484745	0.247488	1.345163	-0.023125	0.468966	1.177235	-0.575141	0.415976	1.182338	0.090628	0.090066	1.712759	-0.344486	0.083625	1.713344	-0.194629	0.163020	1.496698	-0.413895	0.154353	1.504694	-0.114129	0.160763	0.888478	-0.248646	
1454	14.5400	0.149658	0.980655	-0.249535	0.162817	0.888357	-0.339959	0.162211	0.494711	-0.386990	0.129552	0.100428	-0.437782	0.273481	0.039023	-0.467593	0.157317	0.889169	-0.157664	0.157061	0.496293	-0.102538	0.134333	0.099439	-0.048830	0.281129	0.037991	-0.029241	0.127297	1.595788	-0.267323	0.157450	1.501245	-0.263966	0.158922	1.413955	-0.434439	0.355931	1.229611	-0.589419	0.591126	1.148832	-0.651386	0.143889	1.425577	-0.091412	0.301448	1.232765	0.098044	0.534830	1.155146	0.174009	0.073994	0.031162	-0.426543	0.078789	0.029983	-0.059738	0.322007	0.038952	-0.477544	0.330103	0.037028	-0.021963	0.649876	1.137663	-0.660571	0.589056	1.132529	0.189777	0.162957	1.629859	-0.267166	0.174625	1.248136	-0.256720	0.150907	0.698576	-0.437249	0.143483	0.701365	-0.056858	0.135890	0.306033	-0.476049	0.133872	0.307655	-0.012525	0.113450	0.049585	-0.474592	0.119910	0.047808	-0.012412	0.278498	1.349389	-0.486696	0.248925	1.353625	-0.020824	0.478136	1.198543	-0.580900	0.424345	1.202679	0.096556	0.089388	1.713336	-0.344743	0.082810	1.714210	-0.194894	0.161906	1.497257	-0.413845	0.152995	1.505233	-0.114086	0.160067	0.888763	-0.248811	
1455	14.5500	0.148803	0.980872	-0.249608	0.162230	0.888594	-0.340013	0.161840	0.494928	-0.386891	0.129753	0.100599	-0.437694	0.273635	0.039079	-0.467495	0.156725	0.889428	-0.157718	0.156909	0.496557	-0.102543	0.134508	0.099692	-0.048781	0.281219	0.037989	-0.029348	0.126064	1.596304	-0.267276	0.156404	1.501785	-0.263876	0.157948	1.416298	-0.434434	0.362906	1.245222	-0.594267	0.602069	1.178132	-0.657439	0.142189	1.427589	-0.091258	0.307621	1.247475	0.103860	0.545272	1.184009	0.180096	0.074117	0.031376	-0.426565	0.078832	0.030333	-0.059632	0.322168	0.039098	-0.477422	0.330206	0.037223	-0.022114	0.661245	1.170228	-0.667188	0.600800	1.165025	0.195931	0.161880	1.630212	-0.267154	0.173760	1.248687	-0.256631	0.150303	0.698767	-0.437212	0.142969	0.701617	-0.056912	0.135697	0.306222	-0.475941	0.133758	0.307916	-0.012526	0.113619	0.049813	-0.474572	0.120035	0.048086	-0.012350	0.280256	1.358663	-0.488440	0.250118	1.362313	-0.018589	0.486601	1.220337	-0.586174	0.431886	1.223570	0.102191	0.088750	1.713882	-0.344938	0.082066	1.715059	-0.195095	0.160962	1.497808	-0.413752	0.151845	1.505762	-0.113999	0.159478	0.889011	-0.248865	
